# xmcd CD database file
#
# Track frame offsets:
#	150
#	22647
#	38095
#	54397
#
# Disc length: 1023 seconds
#
# Revision: 0
# Processed by: cddbd v1.5PL3 Copyright (c) Steve Scherf et al.
# Submitted via: CDex 1.51
#
DISCID=2003fd04
DTITLE=KOKIA - so much love for you
DYEAR=2004
DGENRE=Vocal
TTITLE0=so much love for you
TTITLE1=New Season〜夢に向かって吹く風〜
TTITLE2=?してる
TTITLE3=so much love for you (Instrumental Version)
EXTD=YEAR: 2004
EXTT0=
EXTT1=
EXTT2=
EXTT3=
PLAYORDER=
